<svg width="18" height="21" viewBox="0 0 18 21" fill="none" xmlns="http://www.w3.org/2000/svg">
<path d="M0.574261 0.000286218C0.573837 0.000709619 0.573413 0.00110674 0.572991 0.00153134C0.415978 0.0169531 0.270327 0.0902697 0.164407 0.207195C0.0584867 0.324121 -0.000119025 0.476283 4.64616e-06 0.634051V19.684C-0.000315914 19.7679 0.0159542 19.8509 0.0478771 19.9284C0.0798001 20.0059 0.126744 20.0763 0.186004 20.1356C0.245264 20.1948 0.315667 20.2418 0.393154 20.2737C0.470642 20.3056 0.553682 20.3219 0.637488 20.3216H17.3484C17.4319 20.3214 17.5145 20.3048 17.5916 20.2726C17.6686 20.2405 17.7386 20.1935 17.7975 20.1343C17.8563 20.0751 17.903 20.0048 17.9346 19.9276C17.9663 19.8503 17.9825 19.7675 17.9822 19.684V0.634051C17.9815 0.466288 17.9145 0.305638 17.7957 0.187127C17.677 0.0686161 17.5162 0.00187387 17.3484 0.00153134H0.637488C0.61644 5.6956e-05 0.595332 -0.000340688 0.574242 0.000286218H0.574261ZM1.27127 1.27155H16.711V19.0515H1.27127V1.27155ZM3.17875 2.53659C3.09495 2.53627 3.01191 2.55249 2.93442 2.58442C2.85694 2.61634 2.78654 2.66329 2.72728 2.72255C2.66802 2.78181 2.62107 2.8522 2.58915 2.92968C2.55722 3.00717 2.54095 3.09021 2.54127 3.17402V12.8305C2.54194 12.9989 2.60948 13.1602 2.72903 13.2788C2.84858 13.3974 3.01034 13.4636 3.17875 13.463H10.3225C10.4901 13.4623 10.6505 13.3955 10.769 13.277C10.8875 13.1586 10.9543 12.998 10.955 12.8305V3.17402C10.9557 3.00561 10.8894 2.84385 10.7708 2.72431C10.6521 2.60477 10.4909 2.53726 10.3225 2.53659H3.17875ZM3.81127 3.80778H9.68502V5.75741H3.81127V3.80778ZM12.8352 4.44528C12.6668 4.44464 12.505 4.51094 12.3855 4.62956C12.2659 4.74818 12.1984 4.90939 12.1977 5.0778V9.52653C12.1984 9.69494 12.2659 9.85616 12.3855 9.97477C12.505 10.0934 12.6668 10.1597 12.8352 10.159H15.0565C15.2242 10.1587 15.3851 10.092 15.5038 9.97345C15.6225 9.85494 15.6896 9.69429 15.6902 9.52653V5.0778C15.6896 4.91003 15.6226 4.74939 15.5038 4.63088C15.3851 4.51236 15.2242 4.44562 15.0565 4.44528H12.8352ZM13.4677 5.7153H14.419V8.88903H13.4677V5.7153ZM3.81127 7.02743H9.68502V8.97707H3.81127V7.02743ZM3.81127 10.2483H9.68502V12.1931H3.81127V10.2483ZM3.17875 14.6028C3.09495 14.6025 3.01191 14.6188 2.93442 14.6507C2.85694 14.6826 2.78654 14.7296 2.72728 14.7888C2.66802 14.8481 2.62107 14.9185 2.58915 14.996C2.55722 15.0734 2.54095 15.1565 2.54127 15.2403V17.7803C2.54144 17.8638 2.55807 17.9464 2.59021 18.0234C2.62235 18.1005 2.66938 18.1705 2.72859 18.2294C2.7878 18.2883 2.85803 18.3348 2.93528 18.3665C3.01252 18.3982 3.09526 18.4143 3.17875 18.414H10.3225C10.4903 18.4134 10.6509 18.3464 10.7695 18.2276C10.888 18.1089 10.9547 17.948 10.955 17.7803V15.2403C10.9557 15.0719 10.8894 14.9101 10.7708 14.7906C10.6521 14.671 10.4909 14.6035 10.3225 14.6028H3.17875ZM3.81127 15.8728H9.68502V17.1428H3.81127V15.8728Z" fill="#3E2A70"/>
</svg>
