<svg width="107" height="46" viewBox="0 0 107 46" fill="none" xmlns="http://www.w3.org/2000/svg">
<path d="M32.2368 14.7197C33.8354 14.7197 34.8144 14.2488 35.1738 13.307H37.1441C36.9211 14.2488 36.3758 14.9862 35.5084 15.519C34.6533 16.0519 33.5628 16.3183 32.2368 16.3183C30.5886 16.3183 29.2627 15.8846 28.2589 15.0171C27.2675 14.1497 26.7718 12.9972 26.7718 11.5597C26.7718 10.085 27.2675 8.90157 28.2589 8.00933C29.2503 7.10469 30.5267 6.65238 32.0881 6.65238C33.538 6.65238 34.7401 7.05512 35.6943 7.86062C36.6608 8.65372 37.1503 9.8124 37.1627 11.3366C37.1627 11.6217 37.1503 11.8447 37.1256 12.0058H28.7608C28.8228 12.8237 29.1573 13.4805 29.7646 13.9762C30.3718 14.4719 31.1959 14.7197 32.2368 14.7197ZM34.3001 8.88298C33.7549 8.46164 33.0175 8.25098 32.0881 8.25098C31.1587 8.25098 30.4028 8.46784 29.8203 8.90157C29.2503 9.3353 28.9033 9.89295 28.7794 10.5745H35.211C35.149 9.86816 34.8454 9.30432 34.3001 8.88298ZM47.9862 14.6268L48.2651 14.6454V16.1324H47.3728C46.3195 16.1324 45.6689 15.6925 45.4211 14.8127C44.628 15.8164 43.3144 16.3183 41.4803 16.3183C40.3154 16.3183 39.386 16.0891 38.6921 15.6306C38.0105 15.172 37.6697 14.4967 37.6697 13.6044C37.6697 12.7494 37.9671 12.0926 38.5619 11.6341C39.1568 11.1632 39.9685 10.8843 40.997 10.7976L45.1794 10.5002V10.147C45.1794 9.52738 44.9563 9.05647 44.5102 8.73427C44.0765 8.39968 43.4507 8.23239 42.6328 8.23239C41.1829 8.23239 40.3402 8.77145 40.1048 9.84958H38.1158C38.2274 8.87059 38.6797 8.09607 39.4728 7.52603C40.2659 6.94359 41.3192 6.65238 42.6328 6.65238C43.9836 6.65238 45.0741 6.95599 45.9044 7.56321C46.747 8.17043 47.1684 9.05028 47.1684 10.2028V13.7717C47.1684 14.3418 47.441 14.6268 47.9862 14.6268ZM45.1794 12.4148V11.8757L41.5175 12.1545C40.2783 12.2537 39.6587 12.706 39.6587 13.5115C39.6587 14.3542 40.334 14.7755 41.6848 14.7755C42.6266 14.7755 43.4445 14.5834 44.1385 14.1993C44.8324 13.8151 45.1794 13.2203 45.1794 12.4148ZM52.8785 16.3183C51.441 16.3183 50.3195 16.0519 49.514 15.519C48.7209 14.9738 48.281 14.2055 48.1942 13.2141H50.1646C50.3628 14.2798 51.2675 14.8127 52.8785 14.8127C54.3284 14.8127 55.0533 14.4161 55.0533 13.623C55.0533 13.2636 54.8922 12.9786 54.57 12.768C54.2478 12.5449 53.7459 12.3652 53.0644 12.2289L51.4843 11.9687C50.5921 11.7952 49.8796 11.5225 49.3467 11.1508C48.8262 10.7666 48.566 10.1904 48.566 9.42204C48.566 8.55459 48.9315 7.87921 49.6627 7.39591C50.4062 6.90022 51.3604 6.65238 52.5253 6.65238C53.8389 6.65238 54.8488 6.91261 55.5552 7.43309C56.274 7.94117 56.6891 8.60416 56.8006 9.42204H54.8303C54.6072 8.57937 53.8389 8.15803 52.5253 8.15803C51.1993 8.15803 50.5363 8.54219 50.5363 9.31051C50.5363 9.57075 50.6293 9.78762 50.8152 9.96111C51.0134 10.1222 51.2179 10.2337 51.4286 10.2957C51.6393 10.3577 51.9676 10.4382 52.4138 10.5373L54.031 10.8162C56.0261 11.1879 57.0237 12.1112 57.0237 13.5858C57.0237 14.5029 56.6395 15.1906 55.8712 15.6491C55.1029 16.0953 54.1053 16.3183 52.8785 16.3183ZM59.3838 20.036C58.9749 20.036 58.473 19.9678 57.8782 19.8315V18.3259C58.2252 18.4126 58.5845 18.456 58.9563 18.456C60.022 18.456 60.778 17.9975 61.2241 17.0805L61.6702 16.1324H60.9824L56.6327 6.83826H58.789L62.2093 14.1993H62.3394L65.5552 6.83826H67.7114L63.1015 17.3779C62.9776 17.6505 62.8722 17.8612 62.7855 18.0099C62.7111 18.1586 62.5624 18.3816 62.3394 18.6791C62.1287 18.9765 61.9056 19.2057 61.6702 19.3668C61.4347 19.5403 61.1125 19.6952 60.7036 19.8315C60.307 19.9678 59.8671 20.036 59.3838 20.036Z" fill="#8C60FE"/>
<path d="M33.3924 30.6468C31.9549 30.6468 30.8334 30.3804 30.0279 29.8475C29.2348 29.3023 28.7949 28.5339 28.7081 27.5426H30.6785C30.8768 28.6083 31.7814 29.1412 33.3924 29.1412C34.8423 29.1412 35.5672 28.7446 35.5672 27.9515C35.5672 27.5921 35.4061 27.3071 35.0839 27.0964C34.7617 26.8734 34.2599 26.6937 33.5783 26.5574L31.9983 26.2971C31.106 26.1237 30.3935 25.851 29.8606 25.4793C29.3401 25.0951 29.0799 24.5189 29.0799 23.7505C29.0799 22.8831 29.4455 22.2077 30.1766 21.7244C30.9201 21.2287 31.8743 20.9809 33.0392 20.9809C34.3528 20.9809 35.3628 21.2411 36.0691 21.7616C36.7879 22.2697 37.203 22.9326 37.3145 23.7505H35.3442C35.1211 22.9079 34.3528 22.4865 33.0392 22.4865C31.7132 22.4865 31.0503 22.8707 31.0503 23.639C31.0503 23.8992 31.1432 24.1161 31.3291 24.2896C31.5274 24.4507 31.7318 24.5622 31.9425 24.6242C32.1532 24.6861 32.4816 24.7667 32.9277 24.8658L34.5449 25.1447C36.54 25.5164 37.5376 26.4397 37.5376 27.9143C37.5376 28.8314 37.1534 29.5191 36.3851 29.9776C35.6168 30.4238 34.6192 30.6468 33.3924 30.6468ZM38.437 30.4609V21.1668H40.2586L40.4259 22.4122H40.5746C41.3677 21.458 42.4892 20.9809 43.9391 20.9809C45.2403 20.9809 46.2689 21.334 47.0248 22.0404C47.7807 22.7344 48.1587 23.7196 48.1587 24.996V30.4609H46.1697V25.4793C46.1697 24.5622 45.9157 23.8745 45.4076 23.4159C44.9119 22.9574 44.2427 22.7282 43.4001 22.7282C42.5202 22.7282 41.8015 22.9698 41.2438 23.4531C40.6985 23.9364 40.4259 24.6552 40.4259 25.6094V30.4609H38.437ZM59.3358 28.9553L59.6146 28.9739V30.4609H58.7224C57.6691 30.4609 57.0185 30.021 56.7706 29.1412C55.9775 30.1449 54.6639 30.6468 52.8299 30.6468C51.665 30.6468 50.7356 30.4176 50.0416 29.9591C49.3601 29.5005 49.0193 28.8252 49.0193 27.9329C49.0193 27.0779 49.3167 26.4211 49.9115 25.9626C50.5063 25.4916 51.318 25.2128 52.3466 25.1261L56.529 24.8287V24.4755C56.529 23.8559 56.3059 23.385 55.8598 23.0628C55.4261 22.7282 54.8002 22.5609 53.9824 22.5609C52.5325 22.5609 51.6898 23.0999 51.4543 24.1781H49.4654C49.5769 23.1991 50.0292 22.4246 50.8223 21.8545C51.6154 21.2721 52.6688 20.9809 53.9824 20.9809C55.3331 20.9809 56.4236 21.2845 57.2539 21.8917C58.0966 22.4989 58.5179 23.3788 58.5179 24.5312V28.1002C58.5179 28.6703 58.7906 28.9553 59.3358 28.9553ZM56.529 26.7433V26.2042L52.8671 26.483C51.6278 26.5822 51.0082 27.0345 51.0082 27.84C51.0082 28.6826 51.6836 29.104 53.0344 29.104C53.9762 29.104 54.7941 28.9119 55.488 28.5277C56.182 28.1436 56.529 27.5488 56.529 26.7433ZM65.0109 30.6468C63.3132 30.6468 61.9624 30.2007 60.9587 29.3085C59.9549 28.4162 59.453 27.2699 59.453 25.8696C59.453 24.4321 59.9673 23.261 60.9958 22.3564C62.0244 21.4394 63.3566 20.9809 64.9923 20.9809C66.3307 20.9809 67.4646 21.2845 68.394 21.8917C69.3358 22.4989 69.8997 23.3478 70.0856 24.4383H68.078C67.9169 23.9302 67.5637 23.5213 67.0185 23.2115C66.4732 22.8893 65.7978 22.7282 64.9923 22.7282C63.9142 22.7282 63.053 23.0256 62.4086 23.6204C61.7642 24.2029 61.442 24.9526 61.442 25.8696C61.442 26.7742 61.7518 27.5054 62.3714 28.063C63.0034 28.6207 63.8832 28.8995 65.0109 28.8995C66.6715 28.8995 67.7124 28.379 68.1338 27.3381H70.1227C69.9245 28.3666 69.3668 29.1783 68.4498 29.7732C67.5451 30.3556 66.3989 30.6468 65.0109 30.6468ZM80.721 21.1668L76.1854 24.7171L80.721 30.4609H78.3975L74.6984 25.8696L72.8953 27.2823V30.4609H70.9063V17.2632H72.8953V24.9402H73.044L78.0443 21.1668H80.721ZM84.9606 30.6468C83.5231 30.6468 82.4016 30.3804 81.5961 29.8475C80.803 29.3023 80.3631 28.5339 80.2763 27.5426H82.2467C82.445 28.6083 83.3496 29.1412 84.9606 29.1412C86.4105 29.1412 87.1354 28.7446 87.1354 27.9515C87.1354 27.5921 86.9743 27.3071 86.6521 27.0964C86.3299 26.8734 85.8281 26.6937 85.1465 26.5574L83.5665 26.2971C82.6742 26.1237 81.9617 25.851 81.4288 25.4793C80.9083 25.0951 80.6481 24.5189 80.6481 23.7505C80.6481 22.8831 81.0137 22.2077 81.7448 21.7244C82.4884 21.2287 83.4426 20.9809 84.6074 20.9809C85.921 20.9809 86.931 21.2411 87.6373 21.7616C88.3561 22.2697 88.7712 22.9326 88.8828 23.7505H86.9124C86.6893 22.9079 85.921 22.4865 84.6074 22.4865C83.2815 22.4865 82.6185 22.8707 82.6185 23.639C82.6185 23.8992 82.7114 24.1161 82.8973 24.2896C83.0956 24.4507 83.3 24.5622 83.5107 24.6242C83.7214 24.6861 84.0498 24.7667 84.4959 24.8658L86.1131 25.1447C88.1082 25.5164 89.1058 26.4397 89.1058 27.9143C89.1058 28.8314 88.7217 29.5191 87.9533 29.9776C87.185 30.4238 86.1874 30.6468 84.9606 30.6468Z" fill="#8C60FE"/>
<path d="M35.3942 34.0942C36.585 34.0942 37.5227 34.444 38.2074 35.1436C38.8921 35.8357 39.2345 36.7847 39.2345 37.9903C39.2345 39.1811 38.8959 40.1338 38.2186 40.8483C37.5413 41.5553 36.5999 41.9088 35.3942 41.9088H31.8106V34.0942H35.3942ZM35.3384 40.7924C36.2166 40.7924 36.8752 40.5357 37.3143 40.0221C37.7534 39.5012 37.973 38.8165 37.973 37.968C37.973 37.1121 37.7497 36.4386 37.3032 35.9474C36.8566 35.4562 36.2017 35.2106 35.3384 35.2106H33.0386V40.7924H35.3384ZM45.8966 41.9088L45.037 39.8882H41.1744L40.3148 41.9088H38.9863L42.3577 34.0942H43.8537L47.214 41.9088H45.8966ZM41.6098 38.8611H44.6016L43.1392 35.4338H43.061L41.6098 38.8611ZM53.7761 39.8324C53.7761 40.5617 53.471 41.1087 52.8607 41.4734C52.2579 41.8381 51.5062 42.0205 50.6056 42.0205C49.5488 42.0205 48.7301 41.8083 48.1496 41.3841C47.5691 40.9599 47.2491 40.3645 47.1895 39.5979H48.4622C48.6185 40.5059 49.333 40.9599 50.6056 40.9599C51.8634 40.9599 52.4923 40.5878 52.4923 39.8435C52.4923 39.6723 52.4514 39.5198 52.3695 39.3858C52.2951 39.2444 52.2058 39.1328 52.1016 39.0509C52.0048 38.9616 51.8634 38.8797 51.6774 38.8053C51.4987 38.7309 51.3462 38.6751 51.2196 38.6378C51.0931 38.6006 50.9219 38.556 50.7061 38.5039L49.679 38.3141C48.1905 37.9569 47.4463 37.2573 47.4463 36.2153C47.4463 35.5157 47.7328 34.9687 48.3059 34.5742C48.879 34.1798 49.6232 33.9826 50.5387 33.9826C51.4838 33.9826 52.2318 34.191 52.7826 34.6077C53.3407 35.0245 53.6422 35.5678 53.6868 36.2376H52.4142C52.3472 35.873 52.1611 35.5827 51.856 35.3669C51.5508 35.151 51.1154 35.0431 50.5498 35.0431C49.9991 35.0431 49.5562 35.1436 49.2213 35.3445C48.8939 35.538 48.7301 35.8097 48.7301 36.1595C48.7301 36.487 48.8715 36.7326 49.1543 36.8963C49.4372 37.06 49.8391 37.2014 50.36 37.3205L51.3759 37.5103C52.9761 37.8527 53.7761 38.6267 53.7761 39.8324ZM60.4942 34.0942H61.7222V41.9088H60.4942V38.515H55.984V41.9088H54.756V34.0942H55.984V37.3987H60.4942V34.0942ZM68.1958 37.7894C69.0889 38.1318 69.5354 38.783 69.5354 39.743C69.5354 40.4278 69.3121 40.9599 68.8656 41.3395C68.419 41.719 67.7939 41.9088 66.9901 41.9088H62.9823V34.0942H66.9119C67.6785 34.0942 68.259 34.2728 68.6535 34.6301C69.0554 34.9799 69.2563 35.4562 69.2563 36.059C69.2563 36.833 68.9028 37.3912 68.1958 37.7336V37.7894ZM64.188 35.0989V37.3875H66.8003C67.1947 37.3875 67.4962 37.2833 67.7045 37.0749C67.9204 36.8665 68.0283 36.5837 68.0283 36.2265C68.0283 35.8767 67.9204 35.6013 67.7045 35.4004C67.4887 35.1994 67.1985 35.0989 66.8338 35.0989H64.188ZM66.9566 40.9041C67.3659 40.9041 67.6859 40.7924 67.9167 40.5692C68.1548 40.3459 68.2739 40.0482 68.2739 39.6761C68.2739 39.3039 68.1511 38.9988 67.9055 38.7606C67.6673 38.515 67.3473 38.3922 66.9454 38.3922H64.188V40.9041H66.9566ZM77.6193 40.8817C76.7932 41.6409 75.7215 42.0205 74.4042 42.0205C73.0869 42.0205 72.0114 41.6409 71.1779 40.8817C70.3517 40.1226 69.9387 39.1625 69.9387 38.0015C69.9387 36.8405 70.3517 35.8804 71.1779 35.1213C72.0114 34.3621 73.0869 33.9826 74.4042 33.9826C75.7141 33.9826 76.7858 34.3659 77.6193 35.1324C78.4529 35.8916 78.8697 36.8479 78.8697 38.0015C78.8697 39.1551 78.4529 40.1152 77.6193 40.8817ZM74.4042 40.8817C75.3568 40.8817 76.1271 40.6101 76.7151 40.0668C77.3105 39.5235 77.6082 38.8351 77.6082 38.0015C77.6082 37.1679 77.3105 36.4795 76.7151 35.9362C76.1271 35.3929 75.3568 35.1213 74.4042 35.1213C73.4515 35.1213 72.6775 35.3929 72.0821 35.9362C71.4942 36.4795 71.2002 37.1679 71.2002 38.0015C71.2002 38.8351 71.4979 39.5235 72.0933 40.0668C72.6887 40.6101 73.459 40.8817 74.4042 40.8817ZM85.5235 41.9088L84.6639 39.8882H80.8013L79.9417 41.9088H78.6132L81.9846 34.0942H83.4806L86.8408 41.9088H85.5235ZM81.2366 38.8611H84.2285L82.7661 35.4338H82.6879L81.2366 38.8611ZM94.0663 41.9088H92.7267L90.8623 38.7383H88.5179V41.9088H87.3122V34.0942H91.253C92.0345 34.0942 92.6485 34.2989 93.0951 34.7082C93.5491 35.1175 93.776 35.6683 93.776 36.3604C93.776 36.9186 93.6235 37.3838 93.3183 37.7559C93.0206 38.128 92.6039 38.3848 92.068 38.5262L94.0663 41.9088ZM88.5179 35.1548V37.6889H91.1302C91.5694 37.6889 91.9117 37.5698 92.1573 37.3317C92.4104 37.0935 92.5369 36.7847 92.5369 36.4051C92.5369 36.0181 92.4141 35.7129 92.1685 35.4897C91.9229 35.2664 91.5842 35.1548 91.1526 35.1548H88.5179ZM98.3262 34.0942C99.517 34.0942 100.455 34.444 101.139 35.1436C101.824 35.8357 102.167 36.7847 102.167 37.9903C102.167 39.1811 101.828 40.1338 101.151 40.8483C100.473 41.5553 99.5319 41.9088 98.3262 41.9088H94.7427V34.0942H98.3262ZM98.2704 40.7924C99.1486 40.7924 99.8073 40.5357 100.246 40.0221C100.685 39.5012 100.905 38.8165 100.905 37.968C100.905 37.1121 100.682 36.4386 100.235 35.9474C99.7887 35.4562 99.1337 35.2106 98.2704 35.2106H95.9707V40.7924H98.2704Z" fill="#8C60FE"/>
<path d="M4.18471 9.49181C4.3523 9.7263 4.66348 9.9394 5.1022 10.1203C5.54252 10.3018 6.10371 10.4477 6.75798 10.5512C8.06632 10.7581 9.7388 10.7938 11.5431 10.6102C13.3529 10.426 14.9885 10.0522 16.2298 9.58386C16.8505 9.34967 17.3708 9.09259 17.7644 8.82509C18.1545 8.55999 18.4134 8.28929 18.528 8.02678L4.18471 9.49181ZM4.18471 9.49181C4.17886 9.47811 4.17046 9.45225 4.16035 9.41447C4.14979 9.37499 4.13841 9.32656 4.12705 9.27375C4.11734 9.22858 4.10773 9.18062 4.09874 9.1329M4.18471 9.49181L4.09874 9.1329M4.09874 9.1329C4.68952 9.55999 5.64256 9.86711 6.83523 10.0352C8.13752 10.2188 9.73642 10.2381 11.4871 10.0599C13.2383 9.88166 14.8007 9.54055 16.0392 9.09829C17.174 8.69312 18.0456 8.19999 18.5379 7.66226C18.5389 7.71016 18.5393 7.75824 18.5392 7.80339C18.539 7.85634 18.538 7.90471 18.5362 7.94366C18.5343 7.98385 18.5317 8.00904 18.5294 8.01952L4.09874 9.1329ZM20.8858 9.47164L20.8857 9.47159C20.3377 8.77601 19.7323 8.23501 19.4244 7.97753C19.4431 7.6568 19.4111 7.27747 19.4105 7.27112L19.3433 6.61134C19.2926 6.11299 18.972 5.70775 18.4749 5.38815C17.9781 5.0688 17.2973 4.82939 16.5057 4.66244C14.9217 4.32838 12.8753 4.28058 10.919 4.47971C8.96245 4.67887 6.9677 5.13804 5.48372 5.78439C4.74207 6.10741 4.12355 6.47909 3.70143 6.89198C3.27898 7.30519 3.04673 7.7667 3.09745 8.26504L3.16461 8.92482C3.16529 8.93149 3.21081 9.31357 3.29399 9.62468C3.05947 9.9291 2.60516 10.556 2.16903 11.366L2.16903 11.366C1.48931 12.6288 1.59012 13.528 1.60023 13.5973L4.05732 37.7355C4.12749 38.4248 4.65155 39.047 5.54236 39.5489C6.14616 40.4292 7.44721 41.1199 9.08089 41.542C10.7272 41.9674 12.7262 42.124 14.7302 41.92C16.7343 41.716 18.6608 41.1598 20.1877 40.4114C21.7028 39.6687 22.8379 38.7299 23.2517 37.7458C24.0228 37.0748 24.4115 36.3597 24.3413 35.6704L21.8841 11.5311L21.884 11.5304C21.8788 11.4842 21.7807 10.6097 20.8858 9.47164ZM3.98471 8.17472L3.98471 8.17467C3.96264 7.9594 4.10652 7.70083 4.4357 7.41954C4.76111 7.14146 5.25121 6.85573 5.8789 6.5864C7.13343 6.04811 8.92429 5.58098 11.0095 5.36872C13.0951 5.15642 14.9435 5.25311 16.2809 5.52756C16.95 5.66488 17.4876 5.84599 17.8625 6.0528C18.2417 6.26198 18.4349 6.48627 18.4568 6.70158L18.4705 6.83604C18.4274 7.01135 18.3164 7.19309 18.1399 7.37694C17.9945 7.08465 17.6957 6.84456 17.2986 6.65094C16.8548 6.43449 16.2766 6.27035 15.6184 6.15614C14.3013 5.92762 12.6504 5.89672 11.0796 6.05662C9.50872 6.21652 7.89777 6.57945 6.65391 7.06869C6.0322 7.31323 5.49906 7.59053 5.10811 7.89201C4.75837 8.1617 4.51425 8.45715 4.43106 8.77282C4.22093 8.62859 4.07542 8.47351 3.99849 8.31008L3.98471 8.17472ZM2.48632 13.4917L2.48682 13.4917L2.48575 13.4869L2.48538 13.4832C2.48493 13.4783 2.48433 13.4708 2.48376 13.4607C2.48261 13.4406 2.48157 13.4103 2.48205 13.3706C2.483 13.2912 2.48997 13.1743 2.5141 13.0252C2.56234 12.7273 2.6792 12.3008 2.95409 11.7902C3.41015 10.9435 3.89647 10.3011 4.07022 10.0813C4.6382 10.5569 5.62915 10.8974 6.89327 11.0804C8.20467 11.2702 9.82188 11.2921 11.5941 11.1117C13.3669 10.9312 14.9471 10.5838 16.1936 10.1335C17.3959 9.6991 18.2982 9.16531 18.7577 8.58442C18.975 8.76007 19.6201 9.30613 20.1865 10.0248C20.8975 10.9292 20.9937 11.5971 20.997 11.6201C20.9971 11.6207 20.9971 11.6209 20.9971 11.6207L21.0222 11.8666C20.9321 12.2339 20.6484 12.6328 20.1854 13.0347C19.7189 13.4398 19.0769 13.8424 18.2883 14.2133C16.7113 14.9549 14.5557 15.5664 12.0659 15.8198C9.58066 16.0728 7.35011 15.908 5.65887 15.4992C4.81313 15.2948 4.10432 15.0298 3.56654 14.7271C3.03288 14.4266 2.67495 14.0931 2.51276 13.7514L2.48632 13.4917ZM2.60675 14.6821C3.34319 15.3405 4.61523 15.8433 6.19689 16.14C7.88979 16.4577 9.94936 16.5416 12.1161 16.321C14.2868 16.1001 16.2909 15.6023 17.8879 14.9496C19.38 14.3398 20.5266 13.5906 21.1158 12.7972L23.4533 35.7608L23.4533 35.7609C23.4725 35.9465 23.4121 36.1614 23.2669 36.3966C23.1225 36.6305 22.8971 36.8797 22.5953 37.1322C22.5933 37.1336 22.5913 37.1352 22.5894 37.137C22.5878 37.1384 22.5863 37.1399 22.5849 37.1414C20.9558 38.4513 17.8878 39.4779 14.5158 39.8211C11.2117 40.1575 7.91923 39.7588 6.06308 38.8158C5.71593 38.6294 5.44435 38.4304 5.2553 38.2299C5.06581 38.0289 4.96308 37.8306 4.94417 37.6449L2.60675 14.6821ZM7.52105 9.60683C6.39716 9.50385 5.46684 9.29249 4.83332 8.99803C4.8396 8.78673 4.99186 8.55036 5.29399 8.30269C5.61272 8.04141 6.08227 7.78109 6.66415 7.54035C7.8271 7.05921 9.4247 6.66205 11.1232 6.48916C12.8221 6.31622 14.4669 6.38323 15.703 6.62003C16.3215 6.73851 16.8339 6.8988 17.1988 7.09041C17.5447 7.27202 17.7416 7.47275 17.7906 7.67835C17.2296 8.0944 16.3609 8.48897 15.2807 8.81644C14.1787 9.15051 12.8614 9.41333 11.436 9.55842C10.0107 9.70369 8.66759 9.71188 7.52105 9.60683ZM14.6397 41.031C12.8352 41.2146 11.1649 41.0986 9.78568 40.8004C8.64635 40.5541 7.70991 40.1844 7.06075 39.7602C9.0415 40.3929 11.7673 40.608 14.5676 40.3229C17.3752 40.0371 19.9952 39.2808 21.7969 38.2691C21.2451 38.8134 20.4036 39.3615 19.3404 39.8302C18.0507 40.3987 16.4406 40.8476 14.6397 41.031Z" fill="#8C60FE" stroke="#8C60FE" stroke-width="0.144191"/>
<path d="M16.2292 7.53081C16.0548 7.1088 14.1627 7.20003 13.2853 7.10055C12.825 7.04868 12.4012 6.96407 11.9805 6.88819C11.7026 6.83773 11.3919 6.76534 11.0212 6.78876C10.3843 6.8291 9.70188 7.10959 9.36263 7.30955C9.02338 7.50951 8.66797 7.84226 8.92531 8.02633C9.07559 8.13313 9.44716 8.16954 9.74067 8.21051C10.1848 8.2727 10.6532 8.33091 11.0555 8.41733C11.8237 8.58144 12.6658 9.10995 13.8902 8.91221C14.4658 8.81896 14.9565 8.60433 15.4885 8.29016C16.0201 7.97565 16.311 7.72899 16.2292 7.53081ZM11.8042 7.70012C11.5696 7.83894 11.1252 7.91055 10.8125 7.86099C10.4992 7.81073 10.4359 7.65777 10.6706 7.51933C10.9056 7.38085 11.3503 7.30845 11.6632 7.35875C11.9764 7.40864 12.0396 7.5616 11.8042 7.70012ZM14.9869 8.20933C14.5243 8.48251 13.6493 8.62396 13.0339 8.52495C12.4181 8.42634 12.2936 8.1255 12.755 7.85243C13.2183 7.57954 14.0915 7.43828 14.7072 7.53651C15.3242 7.63537 15.4492 7.93693 14.9869 8.20933Z" fill="#8C60FE"/>
</svg>
