<svg width="25" height="25" viewBox="0 0 25 25" fill="none" xmlns="http://www.w3.org/2000/svg">
<g clip-path="url(#clip0)">
<path d="M12.9673 15.616C14.6241 15.616 15.9673 14.2728 15.9673 12.616C15.9673 10.9591 14.6241 9.61597 12.9673 9.61597C11.3104 9.61597 9.96729 10.9591 9.96729 12.616C9.96729 14.2728 11.3104 15.616 12.9673 15.616Z" stroke="#3E2A70" stroke-width="2" stroke-linecap="round" stroke-linejoin="round"/>
<path d="M20.3673 15.616C20.2342 15.9176 20.1945 16.2522 20.2533 16.5766C20.3121 16.901 20.4667 17.2003 20.6973 17.436L20.7573 17.496C20.9432 17.6817 21.0908 17.9023 21.1914 18.1451C21.2921 18.3879 21.3439 18.6481 21.3439 18.911C21.3439 19.1738 21.2921 19.4341 21.1914 19.6768C21.0908 19.9196 20.9432 20.1402 20.7573 20.326C20.5715 20.5119 20.351 20.6594 20.1082 20.7601C19.8654 20.8607 19.6051 20.9125 19.3423 20.9125C19.0795 20.9125 18.8192 20.8607 18.5764 20.7601C18.3336 20.6594 18.113 20.5119 17.9273 20.326L17.8673 20.266C17.6316 20.0354 17.3323 19.8808 17.0079 19.822C16.6835 19.7631 16.3489 19.8029 16.0473 19.936C15.7515 20.0627 15.4993 20.2732 15.3216 20.5415C15.1439 20.8098 15.0486 21.1242 15.0473 21.446V21.616C15.0473 22.1464 14.8366 22.6551 14.4615 23.0302C14.0864 23.4053 13.5777 23.616 13.0473 23.616C12.5169 23.616 12.0081 23.4053 11.6331 23.0302C11.258 22.6551 11.0473 22.1464 11.0473 21.616V21.526C11.0395 21.195 10.9324 20.874 10.7398 20.6047C10.5472 20.3354 10.278 20.1303 9.96729 20.016C9.66567 19.8829 9.33109 19.8431 9.0067 19.902C8.6823 19.9608 8.38296 20.1154 8.14728 20.346L8.08729 20.406C7.90154 20.5919 7.68096 20.7394 7.43817 20.8401C7.19537 20.9407 6.93512 20.9925 6.67229 20.9925C6.40945 20.9925 6.1492 20.9407 5.9064 20.8401C5.66361 20.7394 5.44303 20.5919 5.25729 20.406C5.07133 20.2202 4.92381 19.9996 4.82317 19.7568C4.72252 19.5141 4.67071 19.2538 4.67071 18.991C4.67071 18.7281 4.72252 18.4679 4.82317 18.2251C4.92381 17.9823 5.07133 17.7617 5.25729 17.576L5.31729 17.516C5.54782 17.2803 5.70247 16.981 5.76129 16.6566C5.82011 16.3322 5.7804 15.9976 5.64728 15.696C5.52052 15.4002 5.31004 15.1479 5.04175 14.9703C4.77346 14.7926 4.45907 14.6973 4.13729 14.696H3.96729C3.43685 14.696 2.92814 14.4853 2.55307 14.1102C2.178 13.7351 1.96729 13.2264 1.96729 12.696C1.96729 12.1655 2.178 11.6568 2.55307 11.2818C2.92814 10.9067 3.43685 10.696 3.96729 10.696H4.05729C4.38828 10.6882 4.70929 10.5811 4.97858 10.3885C5.24788 10.1959 5.453 9.9267 5.56729 9.61597C5.7004 9.31435 5.74011 8.97977 5.68129 8.65538C5.62247 8.33098 5.46782 8.03165 5.23729 7.79597L5.17729 7.73597C4.99133 7.55022 4.84381 7.32964 4.74317 7.08685C4.64252 6.84405 4.59071 6.5838 4.59071 6.32097C4.59071 6.05814 4.64252 5.79788 4.74317 5.55509C4.84381 5.31229 4.99133 5.09171 5.17729 4.90597C5.36303 4.72001 5.58361 4.5725 5.8264 4.47185C6.0692 4.3712 6.32945 4.31939 6.59229 4.31939C6.85512 4.31939 7.11537 4.3712 7.35817 4.47185C7.60096 4.5725 7.82154 4.72001 8.00729 4.90597L8.06729 4.96597C8.30296 5.1965 8.6023 5.35115 8.9267 5.40997C9.25109 5.46879 9.58567 5.42908 9.88729 5.29597H9.96729C10.2631 5.1692 10.5153 4.95872 10.693 4.69043C10.8707 4.42214 10.966 4.10775 10.9673 3.78597V3.61597C10.9673 3.08553 11.178 2.57683 11.5531 2.20175C11.9281 1.82668 12.4369 1.61597 12.9673 1.61597C13.4977 1.61597 14.0064 1.82668 14.3815 2.20175C14.7566 2.57683 14.9673 3.08553 14.9673 3.61597V3.70597C14.9686 4.02775 15.0639 4.34214 15.2416 4.61043C15.4193 4.87872 15.6715 5.0892 15.9673 5.21597C16.2689 5.34908 16.6035 5.38879 16.9279 5.32997C17.2523 5.27115 17.5516 5.1165 17.7873 4.88597L17.8473 4.82597C18.033 4.64001 18.2536 4.4925 18.4964 4.39185C18.7392 4.2912 18.9995 4.23939 19.2623 4.23939C19.5251 4.23939 19.7854 4.2912 20.0282 4.39185C20.271 4.4925 20.4915 4.64001 20.6773 4.82597C20.8632 5.01171 21.0108 5.23229 21.1114 5.47509C21.2121 5.71788 21.2639 5.97814 21.2639 6.24097C21.2639 6.5038 21.2121 6.76405 21.1114 7.00685C21.0108 7.24964 20.8632 7.47022 20.6773 7.65597L20.6173 7.71597C20.3867 7.95165 20.2321 8.25098 20.1733 8.57538C20.1145 8.89977 20.1542 9.23435 20.2873 9.53597V9.61597C20.414 9.91174 20.6245 10.164 20.8928 10.3417C21.1611 10.5193 21.4755 10.6147 21.7973 10.616H21.9673C22.4977 10.616 23.0064 10.8267 23.3815 11.2018C23.7566 11.5768 23.9673 12.0855 23.9673 12.616C23.9673 13.1464 23.7566 13.6551 23.3815 14.0302C23.0064 14.4053 22.4977 14.616 21.9673 14.616H21.8773C21.5555 14.6173 21.2411 14.7126 20.9728 14.8903C20.7045 15.0679 20.494 15.3202 20.3673 15.616V15.616Z" stroke="#3E2A70" stroke-width="2" stroke-linecap="round" stroke-linejoin="round"/>
</g>
<defs>
<clipPath id="clip0">
<rect width="24" height="24" fill="white" transform="translate(0.967285 0.615967)"/>
</clipPath>
</defs>
</svg>
