<svg width="25" height="25" viewBox="0 0 25 25" fill="none" xmlns="http://www.w3.org/2000/svg">
<g clip-path="url(#clip0)">
<path d="M17.4233 21.6843V19.6843C17.4233 18.6235 17.0019 17.606 16.2518 16.8559C15.5016 16.1058 14.4842 15.6843 13.4233 15.6843H5.42334C4.36247 15.6843 3.34506 16.1058 2.59491 16.8559C1.84477 17.606 1.42334 18.6235 1.42334 19.6843V21.6843" stroke="#3E2A70" stroke-width="2" stroke-linecap="round" stroke-linejoin="round"/>
<path d="M9.42334 11.6843C11.6325 11.6843 13.4233 9.89347 13.4233 7.68433C13.4233 5.47519 11.6325 3.68433 9.42334 3.68433C7.2142 3.68433 5.42334 5.47519 5.42334 7.68433C5.42334 9.89347 7.2142 11.6843 9.42334 11.6843Z" stroke="#3E2A70" stroke-width="2" stroke-linecap="round" stroke-linejoin="round"/>
<path d="M23.4233 21.6843V19.6843C23.4227 18.7981 23.1277 17.9371 22.5847 17.2366C22.0417 16.5362 21.2815 16.0359 20.4233 15.8143" stroke="#3E2A70" stroke-width="2" stroke-linecap="round" stroke-linejoin="round"/>
<path d="M16.4233 3.81433C17.2838 4.03463 18.0464 4.53503 18.591 5.23664C19.1356 5.93825 19.4312 6.80116 19.4312 7.68933C19.4312 8.5775 19.1356 9.44041 18.591 10.142C18.0464 10.8436 17.2838 11.344 16.4233 11.5643" stroke="#3E2A70" stroke-width="2" stroke-linecap="round" stroke-linejoin="round"/>
</g>
<defs>
<clipPath id="clip0">
<rect width="24" height="24" fill="white" transform="translate(0.42334 0.684326)"/>
</clipPath>
</defs>
</svg>
